<?xml version="1.0" encoding="UTF-8"?>
<!DOCTYPE svg PUBLIC "-//W3C//DTD SVG 1.1//EN" "http://www.w3.org/Graphics/SVG/1.1/DTD/svg11.dtd">
<svg xmlns="http://www.w3.org/2000/svg" version="1.1" width="128px" height="128px" style="shape-rendering:geometricPrecision; text-rendering:geometricPrecision; image-rendering:optimizeQuality; fill-rule:evenodd; clip-rule:evenodd" xmlns:xlink="http://www.w3.org/1999/xlink">
<g><path style="opacity:0.998" fill="#000001" d="M 57.5,41.5 C 48.0144,40.5062 38.3478,40.1729 28.5,40.5C 28.5,39.1667 28.5,37.8333 28.5,36.5C 30.3267,29.3183 31.9934,21.985 33.5,14.5C 57.8356,14.3334 82.1689,14.5 106.5,15C 111.144,16.7634 115.311,19.2634 119,22.5C 121.614,27.5093 123.114,32.8427 123.5,38.5C 122.531,48.6142 119.031,57.6142 113,65.5C 108.728,68.565 104.562,71.7317 100.5,75C 96.6855,76.8748 92.6855,78.2082 88.5,79C 94.5975,90.2466 101.264,101.08 108.5,111.5C 109.452,113.045 109.785,114.712 109.5,116.5C 98.8281,116.667 88.1615,116.5 77.5,116C 69.9509,105.465 63.4509,94.2979 58,82.5C 57.0754,81.9535 56.2421,81.2868 55.5,80.5C 40.8485,79.5007 26.1818,79.1674 11.5,79.5C 12.2636,69.8823 14.2636,60.549 17.5,51.5C 42.6222,52.1076 67.6222,51.441 92.5,49.5C 92.9926,47.1944 93.3259,44.861 93.5,42.5C 81.2904,41.5137 69.2904,41.1803 57.5,41.5 Z"/></g>
<g><path style="opacity:0.502" fill="#08072c" d="M 28.5,36.5 C 28.5,37.8333 28.5,39.1667 28.5,40.5C 38.3478,40.1729 48.0144,40.5062 57.5,41.5C 47.5,41.5 37.5,41.5 27.5,41.5C 27.2155,39.5853 27.5489,37.9187 28.5,36.5 Z"/></g>
<g><path style="opacity:0.999" fill="#000003" d="M 15.5,88.5 C 24.0851,88.1834 32.5851,88.5168 41,89.5C 41.5813,93.1895 41.4147,96.8562 40.5,100.5C 39.0428,105.955 37.3761,111.288 35.5,116.5C 26.2494,116.818 17.0828,116.485 8,115.5C 9.9267,108.369 11.4267,101.036 12.5,93.5C 12.7705,91.3074 13.7705,89.6407 15.5,88.5 Z"/></g>
</svg>
